<svg width="223" height="222" viewBox="0 0 223 222" fill="none" xmlns="http://www.w3.org/2000/svg">
<path d="M50.3649 221.375H4.46914V73.5775H50.3649V221.375ZM27.3923 53.4166C12.7163 53.4166 0.8125 41.2607 0.8125 26.5848C0.8125 19.5354 3.61287 12.7747 8.59755 7.78999C13.5822 2.80531 20.3429 0.00494385 27.3923 0.00494385C34.4417 0.00494385 41.2024 2.80531 46.1871 7.78999C51.1718 12.7747 53.9721 19.5354 53.9721 26.5848C53.9721 41.2607 42.0634 53.4166 27.3923 53.4166ZM222.138 221.375H176.341V149.428C176.341 132.281 175.995 110.292 152.479 110.292C128.617 110.292 124.96 128.921 124.96 148.193V221.375H79.114V73.5775H123.132V93.7385H123.774C129.902 82.1262 144.869 69.8715 167.2 69.8715C213.649 69.8715 222.188 100.459 222.188 140.188V221.375H222.138Z" fill="white"/>
</svg>
